<svg version="1.2" xmlns="http://www.w3.org/2000/svg" viewBox="0 0 1024 710" width="1024" height="710">
	<title>Generated Image March 19, 2025 - 7_00PM</title>
	<style>
		.s0 { fill: #0fb5af } 
		.s1 { fill: #112039 } 
		.s2 { fill: #f80403 } 
		.s3 { fill: #fbb40c } 
	</style>
	<g>
		<path class="s0" d="m243.5 202.1l-1.1 4-0.8 3.1-0.4 1.7-0.9 3.6-0.4 1.9-0.8 3.9-0.4 2-1.6 8-0.6 3.8-0.6 3.8-0.3 1.7-0.4 3.4-0.2 1.5-1 14.5-0.2 9.8 0.2 5 0.5 10 0.5 5 1.1 10.1 0.8 4.9 1.8 9.9 1.2 4.9 2.4 9.6 1.4 4.7 3 9.2 1.7 4.5 3.6 8.7 2 4.1 1.5 3.4 0.9 2 0.4 0.9 0.7 1.5 0.2 0.6 0.3 0.9v0.2l-0.1 0.7-0.3 0.6-0.2 0.4-0.8 1.8-0.5 1-1.7 3.2-1.2 2.9-0.7 1.6-1.5 3.5-0.7 2-1.5 3.9-0.8 2.1-3 8.4-1.3 4-1.3 3.9-0.6 1.8-1 3.5-0.4 1.6-1.9 8.2-1.1 6-0.5 3.1-0.9 6.4-0.3 3.3-0.7 6.6-0.3 3.4-0.4 6.7-0.1 3.3-0.2 6.6v3.2l0.1 6.3 0.1 3 0.4 5.9 0.3 2.7 0.6 4.9 0.5 3.6 0.3 1.9 1.4 8.1 0.9 4.2 1.7 8.3 1 3.9 0.9 3.8 0.4 1.8 1 3.4 0.4 1.4 0.6 2 0.2 0.9 0.4 1.7 0.2 0.7 0.3 1.3v0.5l0.1 0.6-0.1 0.1-0.6-0.5-0.7-0.9-0.6-0.8-1.2-1.7-0.7-1-1.5-2.3-0.9-1.3-1.8-2.8-0.9-1.5-2-3.1-1-1.7-4.2-6.8-2-3.4-7.3-13.5-4.7-9.5-2.2-4.9-4.2-10-1.9-5.1-3.8-10.2-1.6-5.1-1.6-5.1-0.5-1.6-0.3-0.7-0.4-1.2-0.1-0.5-0.7-2.7-0.3-1.8v-0.5l-0.2-1.7-0.4-1-0.2-0.3-0.4-0.5-0.2-0.8-0.1-0.4-0.3-1.1-0.2-0.6-0.3-1.4-0.2-0.7-0.7-3.4-0.4-2.1-0.8-4.2-0.4-2.3-0.9-4.8-0.4-2.5-0.8-5.1-0.3-2.5-0.8-5-0.3-2.4-0.6-4.7-0.2-2.1-0.3-3.1-0.1-2.3-0.1-1.2-0.2-5.2-0.1-2.9v-6-3.2l0.1-6.4 0.1-3.3 0.2-6.5 0.2-3.3 0.3-6.3 0.2-3 0.5-5.9 0.3-2.6 0.2-2.6 0.2-1.2 0.3-2.3 0.1-1 2-11.4 1.4-7.4 0.8-3.6 1.7-7.1 0.9-3.4 2-6.9 1-3.4 2.2-6.7 1.2-3.4 2.5-6.7 1.3-3.4 2.9-6.8 1.5-3.4 3.1-6.9 1.8-3.5 3.2-6.4 2.3-4.5 1.3-2.3 5.1-9.1 2.4-4.2 2.5-4.1 1.2-1.9 2.2-3.6 1-1.5 1.9-2.8 0.8-1.1 0.8-1 0.3-0.4 0.6-0.8 0.3-0.2 2.9-3z"/>
		<path class="s1" d="m466.8 47l6.6 0.4 13.2 0.9 6.6 0.8 13.2 1.8 6.6 1.1 17.9 3.8 11.8 3.1 5.9 1.7 11.6 3.8 5.7 2.1 11.4 4.4 5.7 2.5 11.2 5.1 5.5 2.8 10.9 5.8 5.4 3.1 10.8 6.5 5.2 3.5 10.5 7.1 5.1 3.8 9.9 7.7 5.9 5.1 2.7 2.6 5.1 5.1 2.3 2.6 4.4 5.2 2 2.7 3.7 5.5 1.7 2.8 3.2 5.8 1.3 3.1 2.7 6.1 1.1 3.3 2.2 6.7 1 3.5 1.3 5.7 0.6 3.3 0.2 1.9 0.2 2v1.1l0.1 2.3 0.1 1.2v2.8l0.1 1.6v3.3 1.9 5.2 3 1.3l-0.1 2.5v1.1l-0.1 2-0.1 0.9-0.4 3.5-0.3 1.7-0.7 3.3-0.6 1.9-2.2 7.7-1.6 4.8-0.9 2.3-1.9 4.5-1 2.1-2.1 4.2-1.2 2.1-2.5 4-1.3 2-2.8 3.8-1.5 2-3.2 3.8-1.8 2-3.6 3.8-1.9 2-5.7 5.4-3.3 3-1.6 1.3-3.1 2.4-1.6 1.1-3.1 2.1-1.6 1-6.7 3.6-4.5 2.2-2.2 1-4.5 1.8-2.3 0.8-4.5 1.6-2.3 0.6-4.7 1.2-2.3 0.5-4.7 0.8-2.4 0.3-4.9 0.6-2.5 0.2-5 0.2h-2.6l-6.9-0.1-4.3-0.2-2.1-0.2-4.1-0.5-2.1-0.3-4-0.8-2-0.5-4.1-1-2.1-0.7-4.2-1.4-2.3-0.9-4.5-1.7-2.5-1.1-5-2.2-2.8-1.3-6.3-2.8-4.1-1.8-1.9-0.8-3.8-1.5-1.9-0.8-3.6-1.3-1.8-0.6-6.9-2.3-3.3-0.9-6.6-1.7-3.4-0.7-15.9-2.5-10.5-1.1-5.1-0.3-10.3-0.2-5.1 0.1-10.2 0.6-5 0.6-10 1.4-4.9 1-9.9 2.3-4.8 1.4-9.7 3.1-4.8 1.8-9.6 3.9-4.7 2.3-7.9 3.9-5 2.7-2.4 1.4-4.7 2.8-2.2 1.5-4.5 2.9-2.2 1.6-4.3 3.1-2.1 1.7-4.2 3.4-2.1 1.8-4.1 3.7-2.1 2-4.1 4-2.1 2.2-3.1 3.3-2.2 2.4-1.2 1.3-4.5 5.3-2.1 2.7-2.1 2.6-1 1.3-1.8 2.4-0.8 1.1-1.5 2.1-0.7 0.9-1 1.7-0.4 0.6v0.9l0.2 0.8 0.2 0.5 0.6 1.2 0.4 0.6 0.8 1.4 0.5 0.8 1.1 1.6 0.7 0.9 1.3 1.7 0.7 1 3.2 4 1.8 2.1 3.7 4.3 2 2.2 4 4.4 2.1 2.1 4.1 4.2 2 1.9 4 3.6 1.8 1.5 13.6 10.4 9.4 6.3 4.8 2.8 9.7 5.3 4.9 2.4 10.1 4.4 5.1 1.9 10.3 3.5 5.3 1.4 10.6 2.5 5.4 1 10.9 1.6 5.5 0.5 11.1 0.6h5.6l11.4-0.3 7.2-0.4 3.3-0.3 6.7-0.8 3.3-0.5 6.4-1.1 3.2-0.8 6.3-1.6 3.3-1 6.4-2 3.4-1.3 6.7-2.6 3.6-1.5 7.3-3.2 3.8-1.8 6.9-3.1 4.3-1.8 2-0.8 3.9-1.4 1.9-0.7 3.7-1.2 1.8-0.4 7.2-1.7 3.7-0.6 3.8-0.4 1.9-0.2 4-0.3 2.1-0.1 7.7-0.2 5 0.1 2.4 0.2 4.7 0.4 2.3 0.3 4.6 0.7 2.2 0.4 4.5 1 2.1 0.7 4.4 1.3 2.2 0.8 4.4 1.6 2.3 1 4.4 2 2.3 1.1 10 5.7 6.3 4.3 2.9 2.4 5.8 4.9 2.7 2.7 5.2 5.6 2.4 3 4.6 6.1 2.1 3.3 4 6.6 1.7 3.5 3.4 7.2 1.4 3.7 2.6 7.6 1.1 3.9 0.8 3.2 0.5 2 0.2 0.9 0.6 3.5 0.2 1.8 0.2 2v1l0.1 2.3 0.1 1.3v2.8 1.6 3.4 2 5.3l-0.1 3v1.3l-0.1 2.5v1.1l-0.2 2.1-0.1 1-0.4 3.6-0.4 1.7-0.4 1.8-0.2 1-0.5 2-0.3 1.1-2.4 7.8-2 5.2-1.1 2.5-2.4 5.1-1.3 2.5-2.8 4.9-1.5 2.4-3.1 4.7-1.6 2.3-3.5 4.4-1.8 2.1-3.6 4.1-2 1.9-3.9 3.8-2 1.7-9.9 8-6.7 5-3.4 2.5-6.9 4.7-3.5 2.3-7 4.6-3.6 2.1-7.2 4.2-3.7 2.1-7.4 3.9-3.8 1.9-7.6 3.8-3.9 1.8-7.9 3.5-4.1 1.6-10.8 4.2-7.3 2.6-3.8 1.2-7.4 2.3-3.8 1.1-7.6 2-3.9 1-7.7 1.7-3.9 0.8-7.8 1.5-3.9 0.6-7.9 1.2-3.9 0.5-7.9 0.9-4 0.4-10.5 0.8-5.1 0.2-10.1 0.4h-5l-9.9-0.1-4.8-0.3-9.7-0.5-4.8-0.5-9.6-1.1-4.7-0.7-9.6-1.5-4.8-1-9.7-2-4.8-1.2-9.9-2.6-4.9-1.4-15.1-4.8-9.6-3.3-4.7-1.8-9.1-3.7-4.5-2-8.8-4-4.4-2.2-8.6-4.5-4.3-2.5-8.5-5-4.3-2.7-8.6-5.6-4.4-3.1-8.7-6.2-4.5-3.4-2.6-2-2-1.6-1-0.9-2.1-1.8-1.2-1-2.3-2-1.2-1.1-4.9-4.5-2.6-2.4-5.1-4.9-2.6-2.5-5.2-5.1-2.5-2.5-4.9-4.9-2.2-2.4-2.2-2.3-1-1.1-2-2.1-0.9-1-1.7-2-0.8-0.9-1.5-1.8-0.7-0.8-6.8-8.9-4.5-6.1-2.1-3.2-4.4-6.4-2-3.2-4.2-6.6-1.9-3.3-3.9-6.7-1.9-3.3-3.6-6.7-1.7-3.3-3.2-6.6-1.6-3.3-2.9-6.5-1.3-3.2-4.1-10.4-2.5-6.9-1.2-3.4-4.4-13.6-1.8-7-1.8-7.1-0.9-3.6-1.6-7.2-0.7-3.7-1.5-7.5-0.6-3.9-1.3-7.8-0.6-4.1-0.4-3.5-0.3-2.6-0.1-1.5-0.2-3-0.1-1.5-0.2-3.3v-1.7l-0.3-7.1-0.1-3.8-0.1-7.7v-3.9-7.7l0.1-3.8 0.2-7.5 0.2-3.5 0.1-3.4 0.1-1.6 0.2-3.2 0.1-1.4 0.3-2.9 0.1-1.3 0.3-2.5 0.1-1.1 2.1-13.4 1.7-8.8 0.9-4.3 2-8.6 1-4.3 2.3-8.4 1.2-4.2 2.6-8.3 1.4-4.1 2.9-8.1 1.5-4 3.2-8 1.7-3.9 3.5-7.8 1.9-3.8 3.8-7.7 2-3.7 4.1-7.5 2.2-3.7 4.4-7.3 2.4-3.5 4.7-7.2 2.5-3.5 5.1-7 2.6-3.4 5.4-6.8 2.8-3.4 9.3-10.3-0.7 0.4 6-6.6 3.1-3.1 14.4-13.8 9.9-8.7 5.1-4.1 10.4-8 5.4-3.8 10.8-7.3 5.6-3.4 11.2-6.7 5.7-3.1 11.6-5.9 5.9-2.7 11.9-5.2 6.1-2.3 12.2-4.5 6.2-2 12.4-3.8 6.3-1.6 12.7-3 6.4-1.2 12.9-2.2 6.4-0.9 13-1.4 6.6-0.5 13.1-0.6 6.5-0.1m-173.5 357.6l-0.8 1-0.6 1.4-0.4 1-0.8 2.2-0.4 1.3-0.9 2.7-0.4 1.5-1.9 6.4-0.8 3.5-1.7 6.8-0.7 3.2-1.1 6.6-0.6 4.2-0.1 2.5-0.2 2.6v1.5l-0.1 3.1v1.7l-0.1 3.8v2.2 4.6 2.7 7.3l0.1 4.2v1.8l0.1 3.4v1.4l0.2 2.8v1.2l0.2 2.3 0.1 1.1 0.3 2.1 0.1 1 0.7 4 0.5 2.3 3.9 14.8 3.2 9.8 1.9 4.9 3.9 9.5 2.3 4.6 4.7 9.3 2.5 4.4 5.4 8.8 2.9 4.2 5.9 8.3 3.2 4 6.5 7.7 3.5 3.6 7 7.1 3.8 3.3 11.1 9 7.8 5.6 4.1 2.6 8.3 5.1 4.3 2.3 8.7 4.4 4.5 1.9 9 3.8 4.6 1.6 9.2 3 4.6 1.3 9.3 2.3 4.7 0.9 9.3 1.5 4.6 0.4 5.1 0.5 2.8 0.1 5.8 0.2h3 6.3l3.2-0.1 6.5-0.2 3.3-0.2 6.5-0.4 3.3-0.2 6.4-0.6 3.2-0.4 6.1-0.7 2.9-0.5 5.6-0.9 2.5-0.5 3.6-0.7 2.1-0.5 1-0.2 3.5-0.7 1.5-0.4 3-0.7 1.5-0.4 3.2-0.8 2-0.5 13.1-4 8.6-2.9 4.3-1.6 8.5-3.3 4.1-1.8 8.3-3.7 4.1-2 8.1-4.1 4-2.2 8-4.4 3.9-2.4 7.8-4.9 3.8-2.6 7.6-5.2 3.7-2.8 6.2-4.7 3.6-3 1.7-1.4 3.2-2.8 1.4-1.3 2.8-2.7 1.2-1.4 2.4-2.6 1.1-1.4 2-2.7 1-1.3 1.8-2.8 0.8-1.5 1.6-2.9 0.8-1.6 2.7-6.7 1.5-4.9 0.6-2.5 1.1-5.2 0.4-2.6 0.6-5.3 0.1-2.7 0.2-5.4-0.1-2.6-0.3-5.2-0.3-2.5-0.7-5-0.6-2.4-1.2-4.5-0.8-2.1-3.4-7.7-2.3-4.5-1.4-2.1-2.9-4.2-1.6-2-3.5-4-2-2-5-4.7-3.5-2.9-1.7-1.3-3.6-2.5-1.8-1.1-3.7-2.2-2-0.9-3.8-1.9-2-0.8-3.9-1.4-2.1-0.7-4.1-1.1-2.2-0.5-4.3-0.8-2.2-0.3-5.4-0.5-3.6-0.2-1.7 0.1-3.5 0.1-1.7 0.2-3.4 0.4-1.8 0.3-3.5 0.7-1.7 0.5-3.6 1-1.8 0.6-3.7 1.4-1.9 0.8-3.9 1.6-2.1 1-7.2 3.3-2.2 1-1 0.5-1.8 0.8-0.6 0.3-4.1 1.6-3.1 1.2-1.7 0.7-7.3 2.5-3.7 1.3-3.8 1.2-1.8 0.5-3.5 1.1-1.6 0.5-3.1 0.9-1.3 0.3-2.5 0.6-1 0.2-1.6 0.3-1.3 0.3-0.7 0.1-3 0.6-1.4 0.3-9.6 1.7-6.8 0.9-3.5 0.3-7 0.6-3.6 0.1-7.3 0.3h-3.6l-7.3-0.1-3.7-0.2-7.2-0.4-3.6-0.3-7.2-0.7-3.4-0.5-6.9-1.1-3.3-0.6-4.6-0.9-1.6-0.3-0.7-0.1-1.4-0.3h-0.5l-2.8-0.7-0.7-0.3-0.3-0.2-0.4-0.2-0.1-0.1-1-0.7-1.1-0.2h-0.6l-2.2-0.3-2.1-0.4-1.2-0.4-2.6-0.7-1.5-0.5-3-1-1.7-0.6-6.9-2.6-3.6-1.4-7.3-3.1-3.4-1.6-2.9-1.3-1.7-0.8-0.7-0.3-1.3-0.6-0.4-0.1-0.6-0.3h-0.1l-0.4-0.2-0.5-0.2-0.4-0.3-0.8-0.4-0.6-0.3-1-0.6-0.6-0.4-2.7-1.6-1.5-0.9-3.2-1.9-1.6-1.1-3.3-2.1-1.7-1-3.2-2-1.4-0.9-2.7-1.8-1-0.7-1-0.7-0.4-0.3-0.7-0.5-0.3-0.2-3.8-3-1.1-0.8-0.3-0.2-0.7-0.5-0.1-0.1-1.6-1.3-1.2-1-0.8-0.6-3.1-2.7-1.7-1.5-3.5-3-1.5-1.4-1.5-1.3-0.6-0.6-1.2-1.2-0.4-0.4-1.8-1.7-1.1-1-0.5-0.3-0.9-0.7-0.4-0.3-0.6-0.3h-0.1l-0.7-0.3-0.3-0.5v-0.4l-0.4-0.8-0.6-0.9-0.4-0.6-1-1.2-0.5-0.6-1.2-1.4-0.7-0.7-4-4.4-1.2-1.4-0.5-0.6-0.9-1.1-0.3-0.4-1.9-1.9-0.5-0.3-0.3-0.1h-0.4m-13.9-253.4l-0.6 0.3-0.7 0.5-0.4 0.4-1 0.9-0.6 0.6-1.3 1.2-0.7 0.7-1.5 1.5-0.8 0.8-1.7 1.7-0.9 0.9-3.8 3.8-2 2.1-4 4.1-2 2.1-3.9 4.2-1.8 1.9-1.7 1.9-0.8 0.9-1.6 1.7-0.7 0.8-1.3 1.5-0.6 0.7-1.1 1.3-0.4 0.5-10.6 14.1-6.7 9.6-3.1 5-6 9.9-2.8 5.1-5.4 10.2-2.4 5.2-4.8 10.4-2.1 5.3-4.1 10.6-1.8 5.4-3.4 10.7-1.4 5.5-2.7 10.8-1.1 5.5-3.2 19.2-1.5 12.8-0.4 6.3-0.6 12.7v6.3l0.2 12.6 0.4 6.3 1.1 12.5 0.9 6.3 1.9 12.5 1.3 6.2 2.8 12.5 1.7 6.3 3.6 12.4 2.2 6.3 5.8 15.7 4.3 10.1 2.4 5 4.8 9.7 2.6 4.8 5.3 9.4 2.9 4.5 5.9 9.1 3.2 4.4 6.4 8.7 3.5 4.2 7 8.5 3.7 4.1 7.6 8.1 4 3.9 3.4 3.3 1.5 1.5 3 2.8 1.2 1.1 1.2 1.1 0.5 0.4 0.9 0.8 0.4 0.3 0.7 0.6 0.2 0.1 0.4 0.3 0.1-0.6-0.3-0.9-0.3-0.6-0.6-1.5-0.4-0.8-1-1.9-0.5-1-1.9-3.7-1.6-3-0.8-1.7-1.7-3.4-0.8-1.8-1.6-3.4-0.7-1.6-2.6-5.2-2-4-1.2-2-2.3-4.1-1.1-1.9-1.6-2.6 0.3 0.4 1.2 1.7 0.6 0.8 0.7 0.9 0.6 0.5 0.1-0.1-0.1-0.6v-0.5l-0.3-1.3-0.2-0.7-0.4-1.7-0.2-0.9-0.6-2-0.4-1.4-1-3.4-0.4-1.8-1-3.8-0.9-3.9-1.7-8.3-0.9-4.2-1.4-8.1-0.3-1.9-0.5-3.6-0.6-4.9-0.3-2.7-0.4-5.9-0.1-3-0.1-6.3v-3.2l0.2-6.6 0.1-3.3 0.4-6.7 0.3-3.4 0.7-6.6 0.3-3.3 0.9-6.4 0.5-3.1 1.1-6 1.9-8.2 0.4-1.6 1-3.5 0.6-1.8 1.2-3.9 1.4-4 3-8.4 0.8-2.1 1.5-3.9 0.7-2 1.5-3.5 0.7-1.6 1.2-2.9 1.7-3.2 0.5-1 0.8-1.8 0.2-0.4 0.3-0.6 0.1-0.7v-0.2l-0.3-0.9-0.2-0.6-0.7-1.5-0.4-0.9-0.9-2-1.5-3.4-2-4.1-3.6-8.7-1.7-4.5-3-9.2-1.4-4.7-2.4-9.7-1.2-4.8-1.8-9.9-0.8-5-1.1-10-0.5-5-0.5-10-0.2-5 0.2-9.8 1-14.5 0.2-1.5 0.4-3.4 0.3-1.7 0.6-3.8 0.6-3.8 1.6-8 0.4-2 0.8-3.9 0.4-1.9 0.9-3.6 0.4-1.7 0.8-3.1 1.1-4 2.4-7.5-2.9 3-0.3 0.2-0.6 0.8-0.3 0.4-0.8 1-0.8 1.1-0.5 0.8 0.5-0.8 0.8-1.1 0.8-1.1 0.3-0.4 0.7-0.8 0.3-0.2 1.4-1.9 1.1-1.8 0.6-1.1 1.2-2.3 0.5-1.2 1.2-2.4 0.5-1.3 3.1-7.3 2.4-5.1 1.2-2.5 2.6-5 1.2-2.5 2.7-4.7 1.3-2.2 1.1-2 0.6-1.2 0.2-0.5 0.3-0.8 0.1-0.3v-0.4m-40.3 362l-1.9-3.3-1.7-3.2-1-2m-1.9-3.6l-0.4-0.8-1.6-3.2-0.8-1.6m-9.6-22.5l2 5.1 4.2 10 1.8 4-0.6-1.3-1.5-3.2-2.7-6.4-1.3-3.3-2.5-6.6-1.2-3.3-1-2.9m250.9-383.8h-3.2l-6.5 0.2-3.1 0.2-6.1 0.3-2.8 0.2-5.5 0.5-2.4 0.4-2.3 0.3-1.1 0.1-2.1 0.4-0.9 0.2-9.8 2.2-6.3 1.7-2.9 0.8-5.9 1.8-2.9 1-5.6 2.1-2.7 1.1-5.4 2.3-2.7 1.2-5.2 2.6-2.7 1.4-5.2 2.9-2.6 1.6-5.3 3.3-2.6 1.7-7.4 5.2-5 3.9-2.4 2.1-5 4.2-2.4 2.3-4.9 4.6-2.3 2.3-4.7 4.9-2.2 2.4-4.5 5-2 2.5-4.1 5.1-1.9 2.5-3.7 5.1-1.6 2.5-4.6 7.5-3 5.4-1.4 2.8-2.8 5.7-1.4 3-2.6 5.9-1.2 3-2.3 6.1-1 3.1-2.1 6.1-0.9 3-1.7 6.1-0.7 2.9-1.3 5.9-0.5 2.8-0.9 6.4-0.5 4.7-0.2 2.4-0.3 5.1-0.1 2.5-0.2 5.3v2.6 5.3l0.1 2.6 0.1 5.1 0.2 2.5 0.3 4.8 0.2 2.3 0.5 4.4 0.3 2 0.8 4.8 0.7 3.4 0.4 1.8 1.6 7.2 0.8 3.5 0.9 3.4 0.4 1.6 0.9 3.2 0.4 1.4 0.8 2.7 0.4 1.1 0.7 2.1 0.3 0.7 1.7 4 3.6-4.5 1.3-1.6 1.1-1.2 0.6-0.7 2.6-2.7 1.5-1.6 3.1-3.2 1.7-1.7 3.4-3.5 1.8-1.7 3.6-3.4 1.7-1.6 3.5-3.3 1.6-1.4 3.2-2.8 1.4-1.2 1.3-1.1 0.6-0.5 1.2-0.9 0.5-0.4 9.6-6.9 6.6-4.3 3.3-2.1 6.7-4 3.5-1.8 6.9-3.7 3.5-1.6 7.1-3.3 3.6-1.5 7.2-3 3.7-1.3 7.3-2.5 3.7-1.2 7.5-2.1 3.8-1 9.1-2 6.2-1.2 3.1-0.5 6.3-0.8 3.2-0.4 6.3-0.5 3.2-0.2 6.4-0.3 3.2-0.1h6.5l3.2 0.1 6.5 0.3 3.3 0.3 6.5 0.5 3.2 0.4 6.5 0.8 3.2 0.5 6.5 1.1 3.2 0.7 6.4 1.3 3.1 0.8 6.4 1.7 3.1 0.9 6.3 1.9 3.1 1.1 6.1 2.1 3 1.2 6.1 2.5 2.9 1.3 5.9 2.7 2.9 1.4 8.5 3.7 5.7 2 2.9 0.7 5.7 1.3 2.8 0.4 5.7 0.7 2.9 0.1h5.6l2.8-0.2 5.5-0.5 2.8-0.5 5.3-1.2 2.7-0.8 5.2-1.7 2.5-1.1 4.9-2.2 2.4-1.3 4.7-2.8 2.2-1.6 4.3-3.3 2.1-1.8 3.9-3.8 1.9-2.1 3.5-4.3 1.6-2.3 3.2-4.7 1.3-2.5 2.6-5.2 1.1-2.7 2.1-5.6 0.8-2.9 0.7-3.4 0.4-2.9 0.2-1.7 0.4-3.5 0.1-1.9 0.3-3.8v-1.9l0.1-5.5v-3.4l-0.1-1.6-0.3-3.1-0.2-1.5-0.4-2.9-0.3-1.4-0.7-2.9-0.5-1.4-0.9-2.8-0.6-1.5-1.3-3-0.7-1.6-1.5-3.2-0.9-1.7-4.9-8-2-2.7-1.1-1.2-2.2-2.6-1.2-1.3-2.6-2.6-1.4-1.3-2.8-2.7-1.6-1.3-3.2-2.7-1.8-1.4-3.6-2.8-2-1.4-15.9-11-10.7-6.8-5.5-3-11-5.9-5.5-2.7-11.3-5.1-5.7-2.3-11.6-4.4-5.9-1.9-12-3.6-6.1-1.6-12.4-2.9-6.4-1.2-12.9-2.2-6.6-0.9-7.6-0.7-5.7-0.4-3-0.1-6.2-0.1h-3.2z"/>
		<path class="s2" d="m295.8 421.9l1 0.5 0.5 0.4 1.5 1.1 2.6 2.4 0.4 0.5 1.2 1.1 0.6 0.6 1.5 1.3 1.5 1.4 3.5 3 1.7 1.5 3.1 2.7 0.8 0.6 1.2 1.1 1.6 1.2 0.1 0.1 0.7 0.5 0.3 0.2 1.1 0.8 3.8 3 0.3 0.2 0.7 0.5 0.4 0.3 1 0.7 1 0.7 2.7 1.8 1.4 0.9 3.2 2 1.7 1.1 3.3 2 1.6 1.1 3.2 1.9 1.5 0.9 2.7 1.6 0.6 0.4 1 0.6 0.6 0.3 0.8 0.5 0.4 0.2 0.5 0.2 0.4 0.2h0.1l0.6 0.3 0.4 0.1 1.3 0.6 0.7 0.3 1.7 0.8 2.9 1.3 3.4 1.6 7.3 3.1 3.6 1.5 6.9 2.5 1.7 0.6 3 1 1.5 0.5 2.6 0.7 1.2 0.4 2.1 0.4 2.2 0.3h0.6l1.1 0.3 1 0.6 0.1 0.1 0.4 0.3 0.3 0.1 0.7 0.3 2.8 0.7 0.5 0.1 1.4 0.2 0.7 0.1 1.6 0.3 4.6 0.9 3.3 0.6 6.9 1.1 3.4 0.5 7.2 0.7 3.6 0.3 7.2 0.4 3.7 0.2 7.3 0.1h3.6l7.3-0.3 3.6-0.1 7-0.6 3.5-0.3 6.8-0.9 9.6-1.7 1.4-0.3 3-0.6 0.7-0.1 1.3-0.3 1.6-0.3 1-0.2 2.5-0.6 1.3-0.3 3.1-0.9 1.6-0.5 3.5-1 1.8-0.6 3.8-1.2 3.7-1.2 7.3-2.6 1.7-0.7 3.1-1.2 4.1-1.6 0.6-0.3 1.8-0.8 1-0.4 2.2-1.1 7.2-3.3 2.1-1 3.9-1.6 1.9-0.8 3.7-1.4 1.8-0.6 3.6-1 1.7-0.5 3.5-0.7 1.8-0.3 3.4-0.4 1.7-0.2 3.5-0.1h1.7l3.6 0.1 5.4 0.5 2.2 0.3 4.3 0.8 2.2 0.5 4.1 1.1 2.1 0.7 3.9 1.5 2 0.7 3.8 1.9 2 0.9 3.7 2.2 1.8 1.1 3.6 2.5 1.7 1.3 3.5 2.9 5 4.7 2 2.1 3.5 3.9 1.6 2 2.9 4.2 1.4 2.1 2.3 4.6 3.4 7.6 0.8 2.1 1.2 4.5 0.6 2.4 0.7 5 0.3 2.5 0.3 5.2 0.1 2.7-0.2 5.3-0.1 2.7-0.6 5.3-0.4 2.7-1.1 5.1-0.6 2.5-1.5 4.9-2.7 6.7-0.8 1.6-1.6 2.9-0.8 1.5-1.8 2.8-1 1.3-2 2.7-1.1 1.4-2.4 2.6-1.2 1.4-2.8 2.7-1.4 1.3-3.2 2.8-1.7 1.4-3.6 3-6.2 4.7-3.7 2.8-7.6 5.2-3.8 2.6-7.8 4.9-3.9 2.4-8 4.4-4 2.2-8.1 4.1-4.1 2-8.3 3.7-4.1 1.8-8.5 3.3-4.3 1.6-8.6 2.9-13.1 4-2 0.5-3.2 0.8-1.5 0.4-3 0.7-1.5 0.4-3.5 0.7-1 0.3-2.1 0.4-3.6 0.7-2.4 0.5-5.2 0.9-2.6 0.4-5.7 0.7-2.9 0.3-6 0.6-3.1 0.2-6.2 0.5-6.3 0.4-12.5 0.2h-3.1l-5.9-0.1-3-0.1-5.6-0.2-0.8-0.1-1.5-0.1-0.8-0.1-1.3-0.2-0.5-0.1-0.9-0.2-0.7-0.3-0.1-0.1-0.7-0.4-0.4-0.2-1.4-0.5-0.7-0.3-1.8-0.6-2.9-1-5.3-1.6-10.2-4-5.1-2.1-9.8-4.8-4.8-2.5-9.2-5.5-4.5-2.9-8.7-6.3-4.3-3.2-8-6.9-4-3.5-7.4-7.6-3.7-3.8-6.7-8.1-3.3-4.2-6.1-8.6-3-4.4-5.3-9.1-2.6-4.5-4.6-9.5-2.2-4.8-3.8-9.9-1.8-5-3-10.2-1.4-5.1-2.1-10.4-0.9-5.3-1.2-10.6-0.5-5.4-0.3-10.8 0.7-16.3 0.2-1.9 0.4-4.1 0.3-2 0.5-4.2 0.3-2.1 0.6-3.8 0.1-1 0.3-1.6 0.4-2.2 0.3-1.3 0.5-2.4 0.2-1.2 0.4-1.9 0.2-0.9 0.3-1.3 0.1-0.9v-0.4l0.5-0.1z"/>
		<path class="s3" d="m294.9 313.4l-0.1-0.4-0.5-1.6-0.2-0.8-0.6-2.3-0.2-1.2-0.7-2.8-0.9-4.3-0.4-2.2-0.6-4-0.3-2-0.4-4.5v-1.2l-0.2-2.6v-1.4l-0.1-3.1v-1.6l-0.1-3.7v-6.2-3.5l0.1-6.5v-3.1l0.3-5.8 0.2-2.8 0.6-5.4 0.3-2.6 0.8-5.1 0.5-2.5 1.1-5.1 0.6-2.6 1.5-5.3 0.8-2.7 1.9-5.7 3.4-9.3 1.2-3.3 2.7-6.4 1.4-3.2 3-6.2 1.6-3.1 3.4-6 1.7-3 3.7-5.8 1.9-2.9 4-5.6 2.1-2.7 4.3-5.4 2.2-2.6 4.6-5.1 2.3-2.6 4.9-4.8 2.5-2.4 5.1-4.6 2.6-2.3 5.4-4.3 2.8-2.1 5.6-4.1 2.9-2 5.9-3.7 3-1.9 6.1-3.4 3.1-1.7 6.3-3.1 3.2-1.5 6.5-2.9 10.1-3.8 1.4-0.5 2.5-0.9 1.2-0.5 2-0.8 0.9-0.4 1.1-0.6 0.2-0.1 0.3-0.2 0.1-0.2-0.1-0.1 0.3-0.2 0.2-0.2 0.9-0.2 0.6-0.1 1.5-0.2 0.9-0.1 2-0.1 1.1-0.1 2.5-0.1 1.3-0.1 2.8-0.1 3-0.1h6.6 3.3 7.1l3.5 0.1 6.8 0.2 1.7 0.1 3.1 0.1 1.6 0.1 2.9 0.2 1.5 0.1 2.5 0.2 3.4 0.4 6.6 0.8 12.7 2.2 6.3 1.2 12.3 3 6 1.5 11.9 3.7 5.9 1.9 11.5 4.4 5.7 2.2 11.2 5.2 5.6 2.6 10.9 5.9 5.4 3.1 10.7 6.6 15.8 11 2 1.4 3.6 2.8 1.8 1.4 3.2 2.7 1.6 1.3 2.8 2.7 1.4 1.3 2.6 2.6 1.2 1.3 2.2 2.6 1.1 1.3 2 2.6 4.9 8 0.9 1.7 1.5 3.2 0.7 1.6 1.3 3 0.6 1.5 0.9 2.8 0.5 1.4 0.7 2.9 0.3 1.4 0.4 2.9 0.2 1.5 0.3 3.1 0.1 1.6v3.4l-0.1 5.5v1.9l-0.3 3.8-0.1 1.9-0.4 3.5-0.2 1.7-0.4 2.9-0.7 3.4-0.8 2.9-2.1 5.6-1.1 2.7-2.6 5.2-1.3 2.5-3.2 4.7-1.6 2.3-3.5 4.3-1.9 2.1-3.9 3.8-2.1 1.8-4.3 3.3-2.2 1.6-4.7 2.8-2.4 1.3-4.9 2.2-2.5 1.1-5.2 1.7-2.6 0.8-5.4 1.2-2.8 0.5-5.5 0.5-2.8 0.2h-5.6l-2.8-0.1-5.8-0.7-2.8-0.4-5.7-1.3-2.9-0.7-5.7-2-8.5-3.7-2.9-1.4-5.9-2.7-2.9-1.3-6.1-2.5-3-1.2-6.1-2.1-3.1-1.1-6.3-1.9-3.1-0.9-6.4-1.7-3.1-0.7-6.4-1.4-3.2-0.7-6.5-1.1-3.2-0.5-6.5-0.8-3.2-0.4-6.5-0.5-3.3-0.3-6.5-0.2-3.2-0.1h-6.4-3.3l-6.4 0.3-3.2 0.2-6.3 0.5-3.2 0.4-6.3 0.8-3.1 0.5-6.2 1.2-9.1 2-4.7 1.2-9.3 2.8-4.6 1.5-9.1 3.4-4.6 1.8-8.8 3.9-4.5 2-8.5 4.5-4.3 2.3-8.2 4.9-4 2.5-7.8 5.4-3.8 2.7-7.3 5.8-10.2 9.1-7.8 7.3z"/>
	</g>
</svg>